
<svg viewBox="0 0 16 16" xmlns="http://www.w3.org/2000/svg">
    <defs>
        <mask id="a">
            <path fill="#FFF" d="M15 2H1c-.56 0-1 .44-1 1v10c0 .55.44 1 1 1h14c.55 0 1-.45 1-1V3c0-.56-.45-1-1-1Z"/>
        </mask>
        <mask id="b">
            <path fill="#FFF" d="M15 2H1c-.56 0-1 .44-1 1v10c0 .55.44 1 1 1h14c.55 0 1-.45 1-1V3c0-.56-.45-1-1-1Z"/>
        </mask>
        <mask id="c">
            <path fill="#FFF" d="M15 2H1c-.56 0-1 .44-1 1v10c0 .55.44 1 1 1h14c.55 0 1-.45 1-1V3c0-.56-.45-1-1-1Z"/>
        </mask>
        <mask id="d">
            <path fill="#FFF" d="M15 2H1c-.56 0-1 .44-1 1v10c0 .55.44 1 1 1h14c.55 0 1-.45 1-1V3c0-.56-.45-1-1-1Z"/>
        </mask>
        <mask id="e">
            <path fill="#FFF" d="M15 2H1c-.56 0-1 .44-1 1v10c0 .55.44 1 1 1h14c.55 0 1-.45 1-1V3c0-.56-.45-1-1-1Z"/>
        </mask>
    </defs>
    <path fill="#FFF" d="M15 2H1c-.56 0-1 .44-1 1v10c0 .55.44 1 1 1h14c.55 0 1-.45 1-1V3c0-.56-.45-1-1-1Z"/>
    <polygon mask="url(#a)" fill="#00247D" points="16 2 0 2 0 14 16 14"/>
    <path mask="url(#b)" fill="#EEE" d="M15.61.59l1.82 2.38 -6.47 4.96 6.46 4.96 -1.83 2.38 -7.11-5.46 -.09.06 -.31.39 -.11-.09 -.09.06 -.26-.33 -.16-.12 -7.1 5.44 -1.83-2.39 6.45-4.96 -6.46-4.96L.34.52l7.09 5.44 .125-.1 .28-.37 .09.07 .09-.08 .27.36 .11.09 7.1-5.46Z"/>
    <path mask="url(#c)" fill="#CF142B" fill-rule="evenodd" d="M16.22 1.39l.6.79 -7.51 5.75 7.5 5.75 -.61.79 -7.72-5.92 -.41.31 -.09-.11 -.1.12 -.42-.32 -7.71 5.91 -.61-.8 7.49-5.75 -7.49-5.75 .6-.8 7.7 5.91 .41-.32 .08.11 .08-.12 .4.31 7.71-5.92Z"/>
    <polygon mask="url(#d)" fill="#EEE" points="10 1 6 1 6 6 -1 6 -1 10 6 10 6 15 10 15 10 10 17 10 17 6 10 6"/>
    <polygon mask="url(#e)" fill="#CF142B" fill-rule="evenodd" points="16 7 16 9 9 9 9 14 7 14 7 9 0 9 0 7 7 7 7 2 9 2 9 7"/>
</svg>