<svg viewBox="0 0 640 640" xmlns="http://www.w3.org/2000/svg">
    <path d="M367.2 477C345.7 520.7 325.8 528 320 528 314.2 528 294.3 520.7 272.8 477 255.8 442.5 243.6 395.4 240.7 344H399.3C396.3 395.5 384.1 442.6 367.2 477ZM399.3 296H240.7C243.7 244.5 255.9 197.4 272.8 163 294.3 119.3 314.2 112 320 112 325.8 112 345.7 119.3 367.2 163 384.2 197.5 396.4 244.6 399.3 296ZM447.4 344H526.6C518 418.6 469.9 481.3 403.8 510.4 427.8 467.6 444.1 408 447.4 344ZM526.6 296H447.4C444.1 232 427.8 172.4 403.8 129.6 469.9 158.8 518 221.4 526.6 296ZM192.6 296H113.4C122 221.4 170.1 158.7 236.2 129.6 212.2 172.4 195.9 232 192.6 296ZM113.4 344H192.6C195.9 408 212.2 467.6 236.2 510.4 170.1 481.2 122 418.6 113.4 344ZM320 576C461.4 576 576 461.4 576 320 576 178.6 461.4 64 320 64 178.6 64 64 178.6 64 320 64 461.4 178.6 576 320 576Z"/>
</svg>
