<svg viewBox="0 0 512 80" xmlns="http://www.w3.org/2000/svg">
  <path d="M119.72,18.581c5.678,-0 10.495,2.236 14.538,6.623c4.043,4.387 6.022,9.721 6.022,16.086c-0,6.366 -1.979,11.785 -6.022,16.172c-4.043,4.387 -8.86,6.538 -14.538,6.538c-5.505,-0 -9.806,-1.72 -12.817,-5.247l0,21.247l-12.903,0l-0,-60.215l12.903,-0l0,4.043c3.011,-3.527 7.312,-5.247 12.817,-5.247Zm-9.978,30.365c1.978,1.893 4.387,2.839 7.398,2.839c3.011,-0 5.419,-0.946 7.312,-2.839c1.978,-1.892 2.924,-4.473 2.924,-7.656c0,-3.182 -0.946,-5.763 -2.924,-7.656c-1.893,-1.892 -4.301,-2.838 -7.312,-2.838c-3.011,-0 -5.42,0.946 -7.398,2.838c-1.893,1.893 -2.839,4.474 -2.839,7.656c0,3.183 0.946,5.764 2.839,7.656Zm50.753,13.85l-12.904,-0l0,-43.011l12.904,-0l-0,43.011Zm34.924,-21.85l15.398,21.85l-14.795,-0l-8,-11.355l-8,11.355l-14.796,-0l15.398,-21.85l-14.882,-21.161l14.796,-0l7.484,10.667l7.483,-10.667l14.796,-0l-14.882,21.161Zm59.183,5.506l-30.537,-0c1.462,4.043 4.903,6.021 10.322,6.021c3.527,0 6.28,-1.118 8.258,-3.269l10.323,5.936c-4.215,5.935 -10.495,8.86 -18.753,8.86c-7.226,-0 -12.989,-2.151 -17.376,-6.452c-4.301,-4.301 -6.452,-9.72 -6.452,-16.258c0,-6.451 2.151,-11.871 6.366,-16.172c4.301,-4.387 9.806,-6.537 16.516,-6.537c6.279,-0 11.441,2.15 15.57,6.537c4.215,4.301 6.279,9.721 6.279,16.172c0,1.807 -0.172,3.527 -0.516,5.162Zm-30.796,-9.635l18.495,0c-1.29,-4.559 -4.301,-6.795 -9.118,-6.795c-4.989,-0 -8.086,2.236 -9.377,6.795Zm51.527,25.979l-12.903,-0l0,-62.796l12.903,-0l0,62.796Zm30.108,1.204c-6.538,-0 -11.957,-2.151 -16.344,-6.538c-4.301,-4.387 -6.452,-9.72 -6.452,-16.172c0,-6.451 2.151,-11.785 6.452,-16.172c4.387,-4.387 9.806,-6.537 16.344,-6.537c8.258,-0 15.656,4.387 19.441,11.01l-11.269,6.538c-1.548,-3.183 -4.301,-4.817 -8.344,-4.817c-5.592,-0 -9.721,4.129 -9.721,9.978c0,5.85 4.129,9.979 9.721,9.979c4.043,-0 6.882,-1.635 8.344,-4.817l11.269,6.451c-3.785,6.796 -11.097,11.097 -19.441,11.097Zm52.817,-20.731l0,-23.484l12.903,-0l0,43.011l-12.903,-0l0,-4.043c-2.581,3.527 -6.71,5.247 -12.301,5.247c-4.559,-0 -8.43,-1.548 -11.527,-4.731c-3.011,-3.183 -4.559,-7.484 -4.559,-13.075l-0,-26.409l12.903,-0l0,24.516c0,5.075 3.097,7.828 7.484,7.828c4.903,0 8,-3.011 8,-8.86Zm41.979,-23.667l-0,12.387l-8.861,-0l0,15.225c0,3.441 2.581,4.043 8.861,3.699l-0,11.699c-8.172,0.86 -13.85,0.086 -17.033,-2.322c-3.182,-2.495 -4.731,-6.796 -4.731,-13.076l0,-43.343l12.903,-3.871l0,19.602l8.861,-0Zm28.645,-0l-0,12.387l-8.86,-0l-0,15.225c-0,3.441 2.58,4.043 8.86,3.699l-0,11.699c-8.172,0.86 -13.85,0.086 -17.033,-2.322c-3.182,-2.495 -4.731,-6.796 -4.731,-13.076l0,-43.343l12.904,-3.871l-0,19.602l8.86,-0Zm48.516,26.666l-30.538,0c1.463,4.043 4.903,6.022 10.323,6.022c3.527,-0 6.279,-1.119 8.258,-3.269l10.322,5.935c-4.215,5.936 -10.494,8.861 -18.752,8.861c-7.226,-0 -12.989,-2.151 -17.377,-6.452c-4.301,-4.301 -6.451,-9.72 -6.451,-16.258c-0,-6.452 2.15,-11.871 6.365,-16.172c4.301,-4.387 9.807,-6.538 16.517,-6.538c6.279,0 11.44,2.151 15.569,6.538c4.215,4.301 6.28,9.72 6.28,16.172c-0,1.806 -0.172,3.527 -0.516,5.161Zm-30.796,-9.634l18.495,-0c-1.291,-4.559 -4.301,-6.796 -9.119,-6.796c-4.989,0 -8.086,2.237 -9.376,6.796Zm51.527,-17.032l0,7.655c1.634,-5.505 7.054,-8.516 12.903,-8.516l0,14.624c-3.183,-0.516 -6.107,-0 -8.86,1.634c-2.667,1.549 -4.043,4.301 -4.043,8.172l0,19.441l-12.903,0l-0,-43.01l12.903,-0Zm-430.129,50.398l-60,-0l0,-30l30,-0l0,-30l30,-0l0,60Zm-38,-68l0,30l-30,0l0,-30l30,0Zm130.491,10.9l-12.9,-0l0,-12.9l12.9,-0l0,12.9Z"/>
</svg>
