<svg viewBox="0 0 320 320" fill="none" xmlns="http://www.w3.org/2000/svg">
<path fill-rule="evenodd" clip-rule="evenodd" d="M160.75 0C249.056 0 320.75 71.694 320.75 160C320.75 248.306 249.056 320 160.75 320C72.444 320 0.75 248.306 0.75 160C0.75 71.694 72.444 0 160.75 0ZM160.75 8.333C77.043 8.333 9.083 76.293 9.083 160C9.083 243.707 77.043 311.667 160.75 311.667C244.457 311.667 312.417 243.707 312.417 160C312.417 76.293 244.457 8.333 160.75 8.333Z" fill="#DFEB57"/>
<path fill-rule="evenodd" clip-rule="evenodd" d="M160.75 32C231.395 32 288.75 89.355 288.75 160C288.75 230.645 231.395 288 160.75 288C90.105 288 32.75 230.645 32.75 160C32.75 89.355 90.105 32 160.75 32ZM160.75 40.333C94.704 40.333 41.083 93.954 41.083 160C41.083 226.046 94.704 279.667 160.75 279.667C226.796 279.667 280.417 226.046 280.417 160C280.417 93.954 226.796 40.333 160.75 40.333Z" fill="#DFEB57"/>
<path fill-rule="evenodd" clip-rule="evenodd" d="M160.75 64C213.734 64 256.75 107.016 256.75 160C256.75 212.984 213.734 256 160.75 256C107.766 256 64.75 212.984 64.75 160C64.75 107.016 107.766 64 160.75 64ZM160.75 72.333C112.365 72.333 73.083 111.615 73.083 160C73.083 208.385 112.365 247.667 160.75 247.667C209.135 247.667 248.417 208.385 248.417 160C248.417 111.615 209.135 72.333 160.75 72.333Z" fill="#DFEB57"/>
<path fill-rule="evenodd" clip-rule="evenodd" d="M160.75 96C196.073 96 224.75 124.677 224.75 160C224.75 195.323 196.073 224 160.75 224C125.427 224 96.75 195.323 96.75 160C96.75 124.677 125.427 96 160.75 96ZM160.75 104.333C130.027 104.333 105.083 129.277 105.083 160C105.083 190.723 130.027 215.667 160.75 215.667C191.473 215.667 216.417 190.723 216.417 160C216.417 129.277 191.473 104.333 160.75 104.333Z" fill="#DFEB57"/>
<path d="M160.75 192C178.423 192 192.75 177.673 192.75 160C192.75 142.327 178.423 128 160.75 128C143.077 128 128.75 142.327 128.75 160C128.75 177.673 143.077 192 160.75 192Z" fill="#DFEB57"/>
</svg>
