<svg viewBox="0 0 320 320" fill="none" xmlns="http://www.w3.org/2000/svg">
<path d="M58.35 0H0.75V57.6H58.35V0Z" fill="#DFEB57"/>
<path d="M189.55 0H131.95V57.6H189.55V0Z" fill="#DFEB57"/>
<path d="M320.75 0H263.15V57.6H320.75V0Z" fill="#DFEB57"/>
<path d="M123.95 65.6H66.35V123.2H123.95V65.6Z" fill="#DFEB57"/>
<path d="M255.15 65.6H197.55V123.2H255.15V65.6Z" fill="#DFEB57"/>
<path d="M58.35 131.2H0.75V188.8H58.35V131.2Z" fill="#DFEB57"/>
<path d="M189.55 131.2H131.95V188.8H189.55V131.2Z" fill="#DFEB57"/>
<path d="M320.75 131.351H263.15V188.951H320.75V131.351Z" fill="#DFEB57"/>
<path d="M123.95 196.8H66.35V254.4H123.95V196.8Z" fill="#DFEB57"/>
<path d="M255.15 196.8H197.55V254.4H255.15V196.8Z" fill="#DFEB57"/>
<path d="M58.35 262.4H0.75V320H58.35V262.4Z" fill="#DFEB57"/>
<path d="M189.55 262.4H131.95V320H189.55V262.4Z" fill="#DFEB57"/>
<path d="M320.75 262.4H263.15V320H320.75V262.4Z" fill="#DFEB57"/>
</svg>
