<svg viewBox="0 0 365 47" xmlns="http://www.w3.org/2000/svg">
    <path fill="#F4F2EC" fill-rule="evenodd" d="M15.438 36.05C6.388 36.05.988 30.5.988 22.75 .988 13.35 9.538 4.65 18.738 4.65 23.638 4.65 25.588 6.7 25.588 10.05 25.588 13.6 23.588 17.05 20.388 17.05 19.138 17.05 18.388 16.25 18.388 15.2 18.388 14.35 18.138 14 16.838 14 12.738 14 9.738 18.4 9.738 22.6 9.738 25.95 12.138 27.7 15.988 27.7 21.338 27.7 23.138 25 25.288 25 26.888 25 27.738 26.45 27.738 28.5 27.738 32.8 23.538 36.05 15.438 36.05ZM62.138 40.1C59.988 40.1 58.338 39.2 56.438 36.65 55.338 35.2 54.588 33.2 54.038 31.05 49.138 31.3 45.488 31.85 42.438 32.25 42.238 33.35 42.088 34.45 41.938 35.65 41.688 37.85 40.588 38.9 38.388 38.9 35.238 38.9 33.438 36.8 33.438 32.55 31.238 32 30.188 30.6 30.188 28.8 30.188 27.35 30.788 26.4 32.138 26.05 32.788 25.85 33.438 25.65 34.138 25.45 34.738 22.55 35.488 20.35 35.488 17.5 35.488 14.75 36.588 13.2 38.538 13.2 39.238 13.2 39.888 13.4 40.588 13.85 43.288 10.05 46.888 7.5 50.838 7.5 58.238 7.5 60.638 11.8 61.888 22.7 61.888 22.85 61.938 22.95 61.938 23.05 65.438 23.25 66.688 24.2 66.688 26.2 66.688 27.95 65.588 29.5 63.588 30.3 64.738 33.55 65.938 35.4 65.938 37.2 65.938 38.95 64.438 40.1 62.138 40.1ZM50.438 16.15C48.588 16.15 46.388 18.85 44.638 23.7 47.188 23.45 49.938 23.25 52.788 23.15 52.738 22.95 52.738 22.7 52.688 22.45 51.988 16.35 51.338 16.15 50.438 16.15ZM80.438 44.8C73.888 44.8 70.438 41.7 70.438 38 70.438 36.3 71.188 35.2 72.938 35.2 74.938 35.2 75.888 36.45 79.638 36.45 82.638 36.45 83.938 36.3 86.038 35.75 84.388 32.6 69.638 31.65 69.638 21.8 69.638 13.95 82.988 9.05 89.238 9.05 92.838 9.05 94.038 11.35 94.038 13.8 94.038 15.5 93.138 16.9 91.288 17.25 83.688 18.7 78.638 20.45 78.638 21.95 78.638 25.2 95.138 26.3 95.138 35.95 95.138 42.05 90.288 44.8 80.438 44.8ZM112.088 37.75C109.738 37.75 107.738 36.6 106.588 32.8 105.488 28.5 105.438 24.75 106.288 14.55 104.788 14.45 103.238 14.35 101.688 14.2 97.838 13.8 96.138 12 96.138 9.05 96.138 7.2 97.188 5.85 99.588 5.85 104.538 5.85 108.738 6.35 113.288 6.35 116.338 6.35 118.688 5.8 122.688 5.8 125.138 5.8 126.188 7.05 126.188 9.1 126.188 12.75 123.138 14.75 119.238 14.75H115.238C115.288 15.25 115.288 15.75 115.238 16.35 114.388 29.45 115.738 31.55 115.738 34.1 115.738 36.6 114.488 37.75 112.088 37.75ZM140.288 40.55C133.188 40.55 129.138 36.4 129.138 28.95 129.138 23.05 130.488 17.85 130.488 13.7 130.488 11.5 131.588 9.95 134.338 9.95 137.888 9.95 139.638 12.9 139.638 16.5 139.638 21.4 138.088 27.1 138.088 29.3 138.088 31.1 138.938 31.9 141.038 31.9 145.188 31.9 145.688 29.3 148.388 29.3 150.038 29.3 151.088 30.65 151.088 32.6 151.088 34.85 150.388 36.7 148.638 38.25 146.638 39.9 143.188 40.55 140.288 40.55ZM169.938 44.8C159.988 44.8 155.288 37.85 155.288 29.55 155.288 26.5 155.938 22.3 157.188 18.1 155.288 17.3 154.338 15.8 154.338 14.15 154.338 12.9 154.738 11.65 156.988 11.05 163.488 9.3 171.988 8.4 176.388 8.4 181.738 8.4 183.688 10.2 183.688 13.1 183.688 15.15 182.438 16.75 179.888 16.75 174.888 16.75 169.688 17.5 165.788 18.1 165.588 19.35 165.138 21.15 164.738 23.3 167.588 22.75 171.088 22.25 176.538 22.1 179.738 22.1 180.938 23.35 180.938 25.35 180.938 28.4 178.838 30.1 175.988 30.35 170.638 30.65 167.238 31.1 164.338 31.7 164.988 34.35 166.938 36.2 169.988 36.2 175.288 36.2 178.338 34.4 180.388 34.4 182.438 34.4 183.538 35.45 183.538 37.5 183.538 42.2 178.488 44.8 169.938 44.8ZM206.738 36.95C199.188 36.95 195.138 32.75 195.138 24.9 195.138 18.5 196.838 12.9 196.838 8.4 196.838 6.15 197.938 4.55 200.738 4.55 204.238 4.55 205.988 7.6 205.988 10.85 205.988 16.4 203.988 22.85 203.988 25.35 203.988 27.4 204.938 28.3 207.338 28.3 211.788 28.3 212.238 25.6 215.038 25.6 216.688 25.6 217.738 27.1 217.738 28.95 217.738 31.15 217.088 33.05 215.338 34.6 213.288 36.3 209.738 36.95 206.738 36.95ZM225.738 38.7C221.788 38.7 219.438 36.6 219.438 33.95 219.438 32.25 220.388 30.9 222.788 30.5 225.538 30.05 227.638 29.8 229.438 29.7 229.038 29.05 228.838 28.2 228.838 27.3 228.838 24.3 229.038 21.25 229.038 19.05 229.038 18.6 229.038 18.15 229.088 17.75 227.138 17.95 225.688 18.1 224.488 18.1 220.538 18.1 219.188 16.05 219.188 13.65 219.188 11.4 221.038 10 223.588 9.65 230.338 8.7 236.388 8.25 240.688 8.25 245.238 8.25 246.688 9.3 246.688 12 246.688 15.25 244.088 17.2 240.788 17.2 239.488 17.2 238.288 17.2 237.188 17.25 237.588 17.9 237.788 18.7 237.788 19.5 237.788 21.05 237.488 24 237.488 27.7 237.488 28.55 237.388 29.25 237.238 29.85 238.388 29.9 239.688 29.95 241.188 29.95 246.338 29.95 247.488 31.4 247.488 33.6 247.488 36.3 245.238 38.15 241.438 38.15 234.288 38.15 229.638 38.7 225.738 38.7ZM269.588 29.1C267.138 29.1 265.088 27.3 265.088 24.75 265.088 23 265.788 22.15 268.388 21.4 272.438 20.2 276.988 19.55 282.938 19.45 287.788 19.45 288.738 20.6 288.738 22.85 288.738 25.4 287.338 27.75 284.038 27.75H283.788C283.838 34.25 284.338 36.8 285.938 40 287.088 42.4 287.238 42.9 287.238 44.1 287.238 46.15 285.788 47.25 283.838 47.25 281.238 47.25 279.738 46.1 278.288 43.8 277.388 42.2 276.688 40.65 276.088 37.8 272.288 40.5 267.538 41.9 262.838 41.9 254.888 41.9 250.238 37 250.238 29.55 250.238 17.45 261.888 6 273.738 6 278.288 6 280.138 8.1 280.138 11.1 280.138 14.45 278.038 17.45 274.938 17.45 272.688 17.45 273.288 15.65 271.238 15.65 265.238 15.65 259.688 23.15 259.688 28.7 259.688 31.8 261.038 33.25 263.688 33.25 267.838 33.25 272.188 31.75 275.238 28.35 272.738 28.7 271.138 29.1 269.588 29.1ZM299.538 36.75C296.188 36.75 293.838 34.55 293.988 29.7 294.038 28.2 294.038 26.65 294.038 25.1 291.138 24.3 290.038 22.6 290.038 20.8 290.038 19.45 290.638 18.55 292.238 18.1 292.788 17.95 293.338 17.8 293.938 17.65 293.788 12.9 293.538 8.6 293.538 5.25 293.538 2 294.838.45 297.988.45 300.688.45 303.138 2.35 303.138 6.55 303.138 10.1 303.188 13.25 303.238 16.3 306.188 16.1 309.188 16 312.188 16 312.338 12.75 312.438 10.1 312.438 8.2 312.438 5.3 313.838 3.9 316.338 3.9 319.388 3.9 321.288 6.3 321.288 11.1 321.288 12.9 321.238 14.85 321.188 16.8 323.638 17.8 324.638 19.55 324.638 21.2 324.638 23 323.638 24.15 321.688 24.15H320.988V26.9C321.038 31.6 321.938 33.9 321.938 36.6 321.938 38.9 320.638 40.3 318.288 40.3 313.988 40.3 311.938 35.8 311.938 27.75V24.4C308.238 24.65 305.488 24.95 303.388 25.2 303.438 27.55 303.438 29.9 303.438 32.45 303.438 35.3 301.938 36.75 299.538 36.75ZM341.138 40.75C338.738 40.75 336.788 39.6 335.638 35.8 334.638 31.95 334.538 28.55 335.288 19.75 333.738 19.65 332.188 19.55 330.638 19.4 326.988 19 325.088 17.15 325.088 14.3 325.088 12.4 326.238 11.05 328.688 11.05 333.388 11.05 337.638 11.55 342.238 11.55 345.288 11.55 347.588 11 351.538 11 354.138 11 355.138 12.25 355.138 14.4 355.138 17.8 352.338 19.95 348.188 19.95H344.188C344.238 20.55 344.238 21.2 344.188 21.95 343.488 33 344.788 35 344.788 37.15 344.788 39.55 343.488 40.75 341.138 40.75Z"/>
</svg>
