<svg viewBox="0 0 507 80" fill="none" xmlns="http://www.w3.org/2000/svg">
  <path  fill="#FFF" fill-rule="evenodd" clip-rule="evenodd" d="M65 70H5V40H35V10H65V70ZM30 5V35H0V5H30ZM116.72 18.581C122.398 18.581 127.215 20.817 131.258 25.204C135.301 29.591 137.28 34.925 137.28 41.29C137.28 47.656 135.301 53.075 131.258 57.462C127.215 61.849 122.398 64 116.72 64C111.215 64 106.914 62.28 103.903 58.753V80H91V19.785H103.903V23.828C106.914 20.301 111.215 18.581 116.72 18.581ZM106.742 48.946C108.72 50.839 111.129 51.785 114.14 51.785C117.151 51.785 119.559 50.839 121.452 48.946C123.43 47.054 124.376 44.473 124.376 41.29C124.376 38.108 123.43 35.527 121.452 33.634C119.559 31.742 117.151 30.796 114.14 30.796C111.129 30.796 108.72 31.742 106.742 33.634C104.849 35.527 103.903 38.108 103.903 41.29C103.903 44.473 104.849 47.054 106.742 48.946ZM157.495 62.796H144.591V19.785H157.495V62.796ZM192.419 40.946L207.817 62.796H193.022L185.022 51.441L177.022 62.796H162.226L177.624 40.946L162.742 19.785H177.538L185.022 30.452L192.505 19.785H207.301L192.419 40.946ZM251.602 46.452H221.065C222.527 50.495 225.968 52.473 231.387 52.473C234.914 52.473 237.667 51.355 239.645 49.204L249.968 55.14C245.753 61.075 239.473 64 231.215 64C223.989 64 218.226 61.849 213.839 57.548C209.538 53.247 207.387 47.828 207.387 41.29C207.387 34.839 209.538 29.419 213.753 25.118C218.054 20.731 223.559 18.581 230.269 18.581C236.548 18.581 241.71 20.731 245.839 25.118C250.054 29.419 252.118 34.839 252.118 41.29C252.118 43.097 251.946 44.817 251.602 46.452ZM220.806 36.817H239.301C238.011 32.258 235 30.022 230.183 30.022C225.194 30.022 222.097 32.258 220.806 36.817ZM272.333 62.796H259.43V0H272.333V62.796ZM302.441 64C295.903 64 290.484 61.849 286.097 57.462C281.796 53.075 279.645 47.742 279.645 41.29C279.645 34.839 281.796 29.505 286.097 25.118C290.484 20.731 295.903 18.581 302.441 18.581C310.699 18.581 318.097 22.968 321.882 29.591L310.613 36.129C309.065 32.946 306.312 31.312 302.269 31.312C296.677 31.312 292.548 35.441 292.548 41.29C292.548 47.14 296.677 51.269 302.269 51.269C306.312 51.269 309.151 49.634 310.613 46.452L321.882 52.903C318.097 59.699 310.785 64 302.441 64ZM355.258 43.269V19.785H368.161V62.796H355.258V58.753C352.677 62.28 348.548 64 342.957 64C338.398 64 334.527 62.452 331.43 59.269C328.419 56.086 326.871 51.785 326.871 46.194V19.785H339.774V44.301C339.774 49.376 342.871 52.129 347.258 52.129C352.161 52.129 355.258 49.118 355.258 43.269ZM395.946 19.602V31.989H387.086V47.214C387.086 50.655 389.667 51.257 395.946 50.913V62.612C387.774 63.472 382.097 62.698 378.914 60.29C375.731 57.795 374.183 53.494 374.183 47.214V11.429L387.086 7.558V19.602H395.946ZM424.591 19.602V31.989H415.731V47.214C415.731 50.655 418.312 51.257 424.591 50.913V62.612C416.419 63.472 410.742 62.698 407.559 60.29C404.376 57.795 402.828 53.494 402.828 47.214V11.429L415.731 7.558V19.602H424.591ZM473.108 46.268H442.57C444.032 50.311 447.473 52.29 452.892 52.29C456.419 52.29 459.172 51.171 461.151 49.021L471.473 54.956C467.258 60.892 460.978 63.817 452.72 63.817C445.495 63.817 439.731 61.666 435.344 57.365C431.043 53.064 428.892 47.645 428.892 41.107C428.892 34.655 431.043 29.236 435.258 24.935C439.559 20.548 445.065 18.397 451.774 18.397C458.054 18.397 463.215 20.548 467.344 24.935C471.559 29.236 473.624 34.655 473.624 41.107C473.624 42.913 473.452 44.634 473.108 46.268ZM442.312 36.634H460.806C459.516 32.075 456.505 29.838 451.688 29.838C446.699 29.838 443.602 32.075 442.312 36.634ZM493.839 19.602V27.257C495.473 21.752 500.892 18.741 506.742 18.741V33.365C503.559 32.849 500.634 33.365 497.882 34.999C495.215 36.548 493.839 39.3 493.839 43.171V62.612H480.935V19.602H493.839Z"/>
</svg>
