<svg viewBox="0 0 326 76" xmlns="http://www.w3.org/2000/svg">
  <path fill="#F4F2EC" d="M15.149 59.4H.549V74H15.149V59.4Z"/>
  <path fill="#F4F2EC" fill-rule="evenodd" d="M15.149 52.1V46.3C15.149 40 19.449 35.9 25.749 35.9 31.649 35.9 35.549 39.9 35.549 46.1V59C35.549 68.9 40.849 74 51.149 74H55.249V59.9H54.249C51.649 59.9 50.149 58.4 50.149 55.8V41.2C50.149 29.5 42.349 21.8 30.649 21.8 24.349 21.8 19.049 24.1 15.149 28.6V23H.549V52.1H15.149Z"/>
  <path fill="#F4F2EC" d="M86.75 75.2C102.45 75.2 114.25 63.7 114.25 48.5 114.25 33.3 102.45 21.8 86.75 21.8 71.05 21.8 59.25 33.3 59.25 48.5 59.25 63.7 71.05 75.2 86.75 75.2ZM86.75 61.1C79.55 61.1 74.25 55.7 74.25 48.5 74.25 41.3 79.55 35.9 86.75 35.9 93.95 35.9 99.25 41.3 99.25 48.5 99.25 55.7 93.95 61.1 86.75 61.1Z"/>
  <path fill="#F4F2EC" d="M151.85 36.3V23H140.75V9.6H126.95V18.8C126.95 21.6 125.55 23 122.75 23H118.45V36.3H126.15V57.4C126.15 68.3 132.35 74 144.55 74H151.85V60.7H146.75C142.95 60.7 140.75 58.6 140.75 55V36.3H151.85Z"/>
  <path fill="#F4F2EC" d="M212.65 59.9C210.05 59.9 208.55 58.4 208.55 55.8V23H193.95V51.4C193.95 57.2 189.95 61.1 184.05 61.1 178.55 61.1 174.95 57.3 174.95 51.6V23H160.35V56C160.35 67.6 167.85 75.2 179.15 75.2 185.95 75.2 191.55 72.2 195.35 66.6 197.55 71.5 202.35 74 209.55 74H213.65V59.9H212.65Z"/>
  <path fill="#F4F2EC" d="M258.15 59.9C254.65 59.9 251.45 59 248.55 57.4 256.15 48.4 260.45 37 260.45 25.4 260.45 9.9 252.55.8 240.55.8 228.05.8 219.75 10.9 219.75 28.7 219.75 40 222.55 50 227.65 57.7 224.95 59.5 221.95 61.1 218.85 62.3L224.45 74C229.05 72.4 233.25 70.3 237.15 67.7 242.85 71.7 249.65 74 257.35 74H261.35V59.9H258.15ZM240.25 14.9C243.45 14.9 245.35 18.6 245.35 25.4 245.35 33 242.95 40.3 238.75 46.5 236.15 41.2 234.75 34.7 234.75 27.6 234.75 18.9 236.95 14.9 240.25 14.9Z"/>
  <path fill="#F4F2EC" d="M324.45 59.9C321.85 59.9 320.35 58.4 320.35 55.8V23H305.75V28.6C301.95 24.4 296.65 21.8 290.35 21.8 276.35 21.8 265.75 33.3 265.75 48.5 265.75 63.7 276.35 75.2 290.35 75.2 297.45 75.2 303.25 71.9 307.15 66.6 309.35 71.5 314.15 74 321.35 74H325.45V59.9H324.45ZM293.25 61.1C286.15 61.1 280.85 55.7 280.85 48.5 280.85 41.3 286.15 35.9 293.25 35.9 300.45 35.9 305.75 41.3 305.75 48.5 305.75 55.7 300.45 61.1 293.25 61.1Z"/>
</svg>
