<svg viewBox="0 0 995 180" version="1.1" xmlns="http://www.w3.org/2000/svg">
    <path fill="#F4F2EC" fill-rule="evenodd" d="M141.143,114.008c0,-37.135 27.911,-65.992 65.756,-65.992c37.135,-0 64.809,27.91 64.809,65.755c0,37.372 -27.437,66.229 -65.755,66.229c-37.136,0 -64.81,-28.384 -64.81,-65.992Zm65.283,-36.189c-19.632,-0 -31.459,17.503 -31.459,36.189c0,18.213 11.59,36.189 31.459,36.189c19.632,0 31.458,-17.503 31.458,-36.189c0,-18.45 -11.353,-36.189 -31.458,-36.189Zm83.043,-26.255l21.114,-0c3.314,-0 6,2.686 6,6l0,63.776c0,14.902 6.86,28.857 23.654,28.857c16.793,0 23.653,-13.955 23.653,-28.857l-0,-63.776c-0,-3.314 2.686,-6 6,-6l21.114,-0c1.591,-0 3.117,0.632 4.243,1.757c1.125,1.125 1.757,2.651 1.757,4.243l-0,63.067c-0,34.06 -21.051,59.369 -57.241,59.369c-35.006,0 -56.294,-24.126 -56.294,-59.369l0,-63.067c0,-1.592 0.632,-3.118 1.757,-4.243c1.126,-1.125 2.652,-1.757 4.243,-1.757Zm265.17,118.888l-0,-164.452c-0,-1.591 0.632,-3.117 1.757,-4.243c1.125,-1.125 2.651,-1.757 4.243,-1.757l21.114,0c1.591,-0 3.117,0.632 4.243,1.757c1.125,1.126 1.757,2.652 1.757,4.243l-0,164.452c-0,1.591 -0.632,3.117 -1.757,4.243c-1.126,1.125 -2.652,1.757 -4.243,1.757l-21.114,0c-1.592,0 -3.118,-0.632 -4.243,-1.757c-1.125,-1.126 -1.757,-2.652 -1.757,-4.243Zm44.875,-56.681c-0,-35.479 24.836,-65.755 62.207,-65.755c38.082,-0 61.025,28.147 61.025,65.992l0,8.278c0,0 -73.022,0 -87.256,0.005c-0.598,-0 -1.164,0.268 -1.543,0.73c-0.379,0.462 -0.531,1.069 -0.414,1.655c3.155,15.424 12.978,27.413 30.081,27.413c10.395,0 18.597,-4.386 24.587,-12.209c1.542,-2.004 4.174,-2.826 6.583,-2.056c4.903,1.569 13.065,4.181 18.784,6.074c1.713,0.548 3.085,1.843 3.732,3.521c0.647,1.677 0.499,3.558 -0.403,5.114c-10.747,18.141 -32.514,27.467 -53.52,27.467c-37.608,0 -63.863,-28.384 -63.863,-66.229Zm62.207,-40.21c-14.945,0 -24.211,10.519 -27.604,24.016c-0.146,0.597 -0.01,1.227 0.37,1.711c0.379,0.483 0.959,0.765 1.573,0.765c9.202,-0 41.253,-0 50.257,-0.006c0.596,-0 1.161,-0.266 1.539,-0.726c0.379,-0.46 0.533,-1.066 0.419,-1.65c-2.723,-13.543 -11.574,-24.11 -26.554,-24.11Zm-531.156,40.447c-0.116,37.257 -27.518,65.992 -65.756,65.992c-37.135,0 -64.809,-28.384 -64.809,-65.992c0,-37.135 27.911,-65.992 65.756,-65.992c11.692,-0 22.447,2.767 31.695,7.74l-0,-49.756c-0,-1.591 0.632,-3.117 1.757,-4.243c1.125,-1.125 2.651,-1.757 4.243,-1.757l21.114,0c1.591,-0 3.117,0.632 4.243,1.757c1.125,1.126 1.757,2.652 1.757,4.243l0,107.771c0,0.079 -0,0.158 -0,0.237Zm-65.282,-36.189c-19.633,-0 -31.459,17.503 -31.459,36.189c-0,18.213 11.59,36.189 31.459,36.189c19.632,0 31.458,-17.503 31.458,-36.189c0,-18.45 -11.353,-36.189 -31.458,-36.189Zm348.412,36.189c-0,-0.079 -0,-0.158 -0,-0.237l-0,-107.771c-0,-1.591 0.632,-3.117 1.757,-4.243c1.125,-1.125 2.651,-1.757 4.243,-1.757l21.114,0c1.591,-0 3.117,0.632 4.243,1.757c1.125,1.126 1.757,2.652 1.757,4.243l-0,49.756c9.248,-4.973 20.003,-7.74 31.695,-7.74c37.845,-0 65.756,28.857 65.756,65.992c-0,37.608 -27.674,65.992 -64.81,65.992c-38.237,0 -65.64,-28.735 -65.755,-65.992Zm65.282,-36.189c-20.105,-0 -31.458,17.739 -31.458,36.189c-0,18.686 11.826,36.189 31.458,36.189c19.869,0 31.459,-17.976 31.459,-36.189c-0,-18.686 -11.827,-36.189 -31.459,-36.189Zm367.931,92.633c-0,3.314 -2.687,6 -6,6l-21.163,0c-3.314,0 -6,-2.686 -6,-6l0,-63.777c0,-14.901 -6.859,-28.856 -23.653,-28.856c-16.794,-0 -23.653,13.955 -23.653,28.856l-0,63.777c-0,3.314 -2.686,6 -6,6l-21.114,0c-1.592,0 -3.118,-0.632 -4.243,-1.757c-1.125,-1.126 -1.757,-2.652 -1.757,-4.243l-0,-63.067c-0,-35.243 21.287,-59.369 56.294,-59.369c17.063,-0 30.76,5.626 40.473,15.143c9.639,-9.621 23.247,-15.143 39.996,-15.143c36.189,-0 57.24,25.309 57.24,59.369l0,63.067c0,1.591 -0.632,3.117 -1.757,4.243c-1.126,1.125 -2.652,1.757 -4.243,1.757l-21.114,0c-3.314,0 -6,-2.686 -6,-6l-0,-63.777c-0,-14.901 -6.86,-28.856 -23.653,-28.856c-16.794,-0 -23.653,13.955 -23.653,28.856l-0,63.777Zm120.843,-46.845c14.583,-0 26.422,11.839 26.422,26.422c0,14.583 -11.839,26.423 -26.422,26.423c-14.583,0 -26.423,-11.84 -26.423,-26.423c0,-14.583 11.84,-26.422 26.423,-26.422Z"/>
</svg>
