<svg viewBox="0 0 24 24" xmlns="http://www.w3.org/2000/svg">
    <path fill-rule="evenodd" d="M8.674 20.441C8.674 20.441 8.675 20.442 8.675 20.442L8.674 20.441C8.674 20.441 8.674 20.441 8.674 20.441ZM8.674 20.441C7.59 19.45 7.274 17.368 7.726 15.86 8.509 16.811 9.594 17.112 10.718 17.282 12.454 17.545 14.158 17.446 15.77 16.653 15.955 16.562 16.125 16.442 16.327 16.319 16.478 16.758 16.517 17.201 16.464 17.652 16.336 18.75 15.789 19.599 14.92 20.242 14.573 20.499 14.205 20.729 13.846 20.971 12.743 21.717 12.445 22.591 12.859 23.862 12.869 23.893 12.878 23.924 12.9 24 12.337 23.748 11.925 23.381 11.612 22.898 11.281 22.389 11.124 21.826 11.115 21.217 11.111 20.92 11.111 20.621 11.071 20.328 10.974 19.616 10.639 19.296 10.009 19.278 9.362 19.259 8.85 19.659 8.714 20.289 8.704 20.337 8.689 20.385 8.674 20.441ZM2.487 15.608C2.487 15.608 7.939.751 7.951.722 8.118.283 8.372-.001 8.728-.001H15.272C15.629-.001 15.893.283 16.049.722 16.06.752 21.513 15.608 21.513 15.608 21.513 15.608 18.896 14.044 15.083 14.044L12.656 6.532C12.565 6.168 12.3 5.921 12 5.921 11.7 5.921 11.435 6.168 11.344 6.532L8.917 14.044C5.697 14.044 2.487 15.608 2.487 15.608Z"/>
</svg>
