
<svg viewBox="0 0 100 100" xmlns="http://www.w3.org/2000/svg">
    <rect width="100" height="100" fill="none" fill-rule="evenodd"/>
    <path fill-rule="evenodd" d="M4.167 4.167H95.833V95.833H4.167V4.167ZM88.331 73.971C87.66 69.788 84.933 66.277 76.855 63.001 74.049 61.711 70.921 60.787 69.989 58.661 69.658 57.424 69.614 56.727 69.823 55.978 70.425 53.546 73.326 52.788 75.627 53.485 77.108 53.982 78.511 55.124 79.356 56.945 83.312 54.383 83.303 54.4 86.065 52.64 85.055 51.072 84.514 50.349 83.852 49.678 81.473 47.02 78.232 45.652 73.047 45.757 72.15 45.87 71.244 45.992 70.346 46.105 67.758 46.759 65.292 48.118 63.846 49.939 59.506 54.862 60.744 63.48 66.024 67.026 71.226 70.93 78.868 71.819 79.844 75.47 80.794 79.94 76.559 81.386 72.35 80.872 69.248 80.227 67.523 78.65 65.658 75.784 62.225 77.77 62.225 77.77 58.696 79.8 59.533 81.63 60.413 82.458 61.816 84.044 68.455 90.78 85.072 90.448 88.052 80.254 88.174 79.905 88.976 77.57 88.331 73.971ZM54 46.297H45.425C45.425 53.703 45.391 61.058 45.391 68.464 45.391 73.178 45.635 77.5 44.868 78.824 43.613 81.43 40.363 81.107 38.882 80.602 37.374 79.861 36.607 78.807 35.719 77.317 35.475 76.89 35.292 76.559 35.231 76.533 32.904 77.953 30.586 79.382 28.26 80.802 29.419 83.181 31.126 85.246 33.314 86.588 36.581 88.549 40.973 89.15 45.565 88.096 48.554 87.224 51.133 85.421 52.483 82.676 54.435 79.077 54.017 74.72 54 69.902 54.043 62.042 54 54.183 54 46.297Z"/>
</svg>