
<svg viewBox="0 0 100 100" xmlns="http://www.w3.org/2000/svg">
    <rect width="100" height="100" fill="none" fill-rule="evenodd"/>
    <path d="M46.725.027C46.51.046 45.826.115 45.21.164 31.007 1.444 17.703 9.107 9.277 20.884 4.585 27.432 1.584 34.861.45 42.728 .049 45.475 0 46.286 0 50.01 0 53.734.049 54.545.45 57.291 3.167 76.067 16.53 91.841 34.653 97.686 37.898 98.732 41.32 99.445 45.21 99.875 46.725 100.042 53.275 100.042 54.79 99.875 61.505 99.133 67.195 97.471 72.805 94.607 73.666 94.168 73.832 94.05 73.715 93.953 73.636 93.894 69.971 88.978 65.572 83.035L57.576 72.235 47.556 57.409C42.043 49.257 37.507 42.592 37.468 42.592 37.429 42.582 37.39 49.169 37.37 57.213 37.341 71.297 37.331 71.864 37.155 72.196 36.901 72.675 36.706 72.871 36.295 73.086 35.982 73.242 35.709 73.271 34.233 73.271H32.542L32.092 72.988C31.799 72.802 31.584 72.558 31.437 72.274L31.232 71.835 31.251 52.238 31.281 32.632 31.584 32.251C31.74 32.046 32.072 31.782 32.307 31.655 32.708 31.459 32.864 31.44 34.555 31.44 36.549 31.44 36.882 31.518 37.4 32.085 37.546 32.241 42.972 40.412 49.462 50.254 55.953 60.096 64.829 73.535 69.189 80.132L77.107 92.125 77.507 91.861C81.056 89.554 84.809 86.27 87.781 82.85 94.106 75.588 98.182 66.733 99.55 57.291 99.951 54.545 100 53.734 100 50.01 100 46.286 99.951 45.475 99.55 42.728 96.833 23.953 83.47 8.178 65.347 2.334 62.151 1.297 58.749.584 54.936.154 53.998.056 47.537-.051 46.725.027ZM67.195 30.267C67.664 30.501 68.045 30.951 68.182 31.42 68.26 31.674 68.28 37.108 68.26 49.355L68.231 66.928 65.132 62.178 62.023 57.428V44.654C62.023 36.395 62.063 31.752 62.121 31.528 62.278 30.98 62.62 30.55 63.089 30.296 63.49 30.091 63.636 30.071 65.171 30.071 66.618 30.071 66.872 30.091 67.195 30.267Z"/>
</svg>