<svg viewBox="0 0 24 24" xmlns="http://www.w3.org/2000/svg">
    <path fill-rule="evenodd" d="M14.968 1.05L2.795 1.949C1.813 2.034 1.472 2.676 1.472 3.445V16.79C1.472 17.389 1.684 17.902 2.198 18.587L5.059 22.308C5.529 22.907 5.957 23.035 6.854 22.993L20.991 22.137C22.186 22.052 22.528 21.495 22.528 20.554V5.541C22.528 5.055 22.336 4.915 21.771 4.5L17.788 1.692C16.848 1.008 16.464.922 14.968 1.05V1.05ZM7.174 5.295C6.02 5.373 5.758 5.391 5.102 4.857L3.436 3.532C3.266 3.36 3.351 3.146 3.778 3.103L15.48 2.248C16.463 2.163 16.975 2.505 17.359 2.804L19.366 4.258C19.452 4.302 19.665 4.558 19.409 4.558L7.324 5.285 7.174 5.295V5.295ZM5.828 20.426V7.681C5.828 7.124 5.999 6.868 6.511 6.824L20.391 6.012C20.862 5.969 21.075 6.269 21.075 6.824V19.484C21.075 20.041 20.989 20.512 20.221 20.554L6.938 21.324C6.169 21.367 5.828 21.111 5.828 20.426V20.426ZM18.94 8.364C19.025 8.749 18.94 9.134 18.555 9.178L17.915 9.305V18.715C17.359 19.014 16.847 19.185 16.42 19.185 15.736 19.185 15.565 18.971 15.053 18.33L10.867 11.743V18.116L12.191 18.416C12.191 18.416 12.191 19.186 11.123 19.186L8.177 19.357C8.091 19.185 8.177 18.758 8.475 18.673L9.245 18.459V10.033L8.177 9.947C8.091 9.562 8.305 9.006 8.903 8.963L12.064 8.75 16.42 15.422V9.519L15.309 9.392C15.224 8.92 15.565 8.578 15.992 8.536L18.94 8.364V8.364Z"/>
</svg>
