
<svg viewBox="0 0 100 100" xmlns="http://www.w3.org/2000/svg">
    <rect width="100" height="100" fill="none" fill-rule="evenodd"/>
    <path fill-rule="evenodd" d="M50 23.973C77.596 23.973 100 35.635 100 50 100 64.365 77.596 76.027 50 76.027 22.404 76.027 0 64.365 0 50 0 35.635 22.404 23.973 50 23.973ZM39.137 58.219H45.645L48.727 42.808H53.864C56.261 42.808 56.261 43.836 55.918 45.548L53.521 58.219H60.37L62.768 44.178C63.452 40.753 61.398 38.014 55.918 37.671H49.754L51.124 30.48H44.617L39.137 58.219ZM59.932 65.411H66.438L67.808 58.219H73.973C79.795 58.562 86.302 53.767 86.302 45.548 86.302 40.753 83.562 38.014 78.082 37.671H65.411L59.932 65.411ZM69.178 53.082L70.89 42.808H75.343C77.74 42.808 79.452 43.836 79.452 45.89 79.11 51.712 76.37 52.74 73.288 53.082H69.178ZM14.041 65.411H20.548L21.918 58.219H28.082C33.904 58.562 40.411 53.767 40.411 45.548 40.411 40.753 37.671 38.014 32.191 37.671H19.521L14.041 65.411ZM23.287 53.082L25 42.808H29.452C31.849 42.808 33.561 43.836 33.561 45.89 33.219 51.713 30.479 52.74 27.397 53.082H23.287Z"/>
</svg>