<svg viewBox="0 0 24 24" xmlns="http://www.w3.org/2000/svg">
    <path d="M16.662 1C15.807 1.006 14.957 1.131 14.136 1.369L14.079 1.388C13.561 1.296 13.037 1.246 12.511 1.237 11.431 1.218 10.504 1.48 9.756 1.917 9.019 1.661 7.49 1.22 5.878 1.308 4.756 1.369 3.531 1.71 2.624 2.668 1.719 3.626 1.241 5.109 1.341 7.125 1.369 7.682 1.528 8.589 1.791 9.764 2.054 10.94 2.423 12.315 2.884 13.57 3.345 14.826 3.85 15.954 4.64 16.72 5.034 17.104 5.576 17.427 6.216 17.4 6.666 17.382 7.072 17.185 7.422 16.894 7.592 17.119 7.775 17.217 7.941 17.308 8.15 17.422 8.353 17.5 8.564 17.551 8.943 17.646 9.591 17.772 10.35 17.643 10.608 17.6 10.88 17.516 11.152 17.396 11.162 17.698 11.174 17.994 11.186 18.294 11.223 19.244 11.247 20.121 11.532 20.89 11.578 21.016 11.704 21.663 12.199 22.234 12.694 22.806 13.663 23.162 14.768 22.926 15.547 22.759 16.538 22.458 17.196 21.522 17.847 20.596 18.14 19.267 18.198 17.113 18.213 16.997 18.23 16.898 18.249 16.805L18.404 16.819H18.422C19.253 16.857 20.155 16.738 20.909 16.388 21.576 16.079 22.081 15.767 22.449 15.212 22.54 15.075 22.641 14.909 22.669 14.623 22.696 14.337 22.532 13.889 22.26 13.683 21.715 13.269 21.372 13.426 21.004 13.503 20.642 13.583 20.273 13.627 19.902 13.636 20.962 11.852 21.722 9.956 22.155 8.278 22.412 7.288 22.556 6.375 22.568 5.577 22.58 4.779 22.515 4.072 22.036 3.46 20.541 1.55 18.439 1.022 16.813 1.004 16.763 1.003 16.712 1.002 16.662 1.003V1ZM16.619 1.587C18.157 1.572 20.122 2.004 21.533 3.807 21.85 4.212 21.945 4.804 21.934 5.534 21.922 6.263 21.787 7.135 21.54 8.091 21.062 9.943 20.158 12.102 18.885 14.039 18.93 14.071 18.978 14.097 19.03 14.118 19.295 14.228 19.901 14.322 21.11 14.074 21.415 14.009 21.638 13.966 21.869 14.142 21.982 14.239 22.044 14.383 22.036 14.532 22.024 14.643 21.983 14.749 21.917 14.84 21.683 15.191 21.222 15.524 20.631 15.798 20.108 16.042 19.357 16.169 18.691 16.176 18.358 16.18 18.05 16.154 17.788 16.073L17.772 16.066C17.671 17.038 17.439 18.957 17.288 19.832 17.167 20.538 16.955 21.099 16.551 21.519 16.148 21.939 15.577 22.192 14.808 22.357 13.857 22.561 13.163 22.341 12.716 21.964 12.269 21.589 12.065 21.09 11.942 20.785 11.858 20.574 11.814 20.301 11.771 19.936 11.729 19.571 11.698 19.124 11.677 18.621 11.649 17.851 11.64 17.08 11.649 16.308 11.252 16.672 10.758 16.914 10.227 17.005 9.595 17.112 9.031 17.007 8.695 16.923 8.529 16.881 8.369 16.819 8.218 16.738 8.063 16.655 7.914 16.561 7.815 16.374 7.757 16.268 7.738 16.144 7.763 16.025 7.794 15.905 7.864 15.798 7.963 15.722 8.144 15.574 8.384 15.492 8.746 15.417 9.405 15.281 9.636 15.188 9.776 15.077 9.895 14.982 10.03 14.79 10.268 14.507 10.267 14.495 10.266 14.482 10.265 14.47 9.839 14.458 9.421 14.345 9.046 14.141 8.909 14.286 8.206 15.029 7.35 16.059 6.99 16.49 6.592 16.737 6.172 16.755 5.752 16.773 5.373 16.561 5.05 16.249 4.406 15.623 3.892 14.546 3.443 13.328 2.996 12.111 2.632 10.755 2.374 9.6 2.114 8.445 1.961 7.514 1.939 7.065 1.843 5.156 2.289 3.87 3.055 3.059 3.821 2.248 4.872 1.941 5.895 1.882 7.733 1.776 9.479 2.417 9.832 2.555 10.512 2.093 11.388 1.805 12.483 1.823 13.002 1.83 13.519 1.898 14.024 2.023L14.042 2.015C14.264 1.937 14.49 1.871 14.719 1.819 15.342 1.673 15.979 1.596 16.618 1.589L16.619 1.587ZM16.758 2.201H16.624C16.099 2.208 15.576 2.267 15.062 2.377 16.204 2.883 17.067 3.662 17.675 4.439 18.097 4.978 18.446 5.569 18.712 6.199 18.813 6.441 18.881 6.646 18.92 6.804 18.939 6.884 18.952 6.951 18.956 7.021 18.958 7.056 18.96 7.091 18.945 7.153 18.945 7.155 18.941 7.162 18.94 7.165 18.967 7.968 18.768 8.512 18.745 9.278 18.726 9.834 18.868 10.487 18.903 11.199 18.936 11.868 18.855 12.603 18.421 13.325 18.458 13.369 18.491 13.413 18.525 13.457 19.675 11.646 20.504 9.643 20.945 7.936 21.182 7.016 21.308 6.183 21.319 5.523 21.328 4.863 21.205 4.384 21.048 4.185 19.818 2.612 18.153 2.211 16.758 2.2V2.201ZM12.367 2.436C11.284 2.438 10.506 2.766 9.917 3.256 9.309 3.763 8.901 4.457 8.634 5.167 8.316 6.011 8.206 6.826 8.163 7.38L8.175 7.373C8.503 7.189 8.932 7.006 9.393 6.9 9.853 6.794 10.349 6.761 10.798 6.935 11.247 7.11 11.618 7.519 11.753 8.141 12.398 11.127 11.552 12.237 11.241 13.074 11.122 13.378 11.021 13.688 10.937 14.003 10.977 13.994 11.016 13.983 11.055 13.979 11.275 13.961 11.448 14.034 11.55 14.078 11.864 14.208 12.079 14.482 12.196 14.793 12.226 14.875 12.248 14.963 12.261 15.054 12.274 15.091 12.281 15.13 12.279 15.17 12.244 16.312 12.248 17.455 12.291 18.596 12.312 19.09 12.343 19.524 12.383 19.867 12.422 20.209 12.478 20.469 12.514 20.557 12.631 20.851 12.803 21.235 13.112 21.496 13.422 21.756 13.867 21.93 14.679 21.756 15.383 21.605 15.818 21.395 16.108 21.094 16.398 20.792 16.571 20.372 16.682 19.73 16.848 18.767 17.182 15.976 17.222 15.45 17.204 15.054 17.262 14.75 17.389 14.518 17.519 14.28 17.721 14.134 17.895 14.055 17.982 14.016 18.063 13.989 18.13 13.97 18.06 13.868 17.985 13.769 17.908 13.672 17.656 13.368 17.451 13.028 17.297 12.665 17.223 12.515 17.145 12.367 17.062 12.222 16.94 12.002 16.786 11.727 16.624 11.418 16.302 10.799 15.951 10.049 15.768 9.319 15.587 8.589 15.56 7.834 16.026 7.301 16.438 6.828 17.162 6.632 18.25 6.742 18.217 6.646 18.198 6.566 18.144 6.438 17.898 5.859 17.577 5.316 17.19 4.821 16.269 3.643 14.777 2.475 12.473 2.437H12.367V2.436ZM6.279 2.483C6.162 2.483 6.046 2.487 5.93 2.493 5.004 2.546 4.129 2.815 3.503 3.479 2.876 4.142 2.463 5.23 2.553 7.032 2.571 7.373 2.719 8.328 2.974 9.463 3.228 10.598 3.588 11.933 4.021 13.113 4.454 14.293 4.98 15.319 5.478 15.805 5.73 16.048 5.948 16.146 6.146 16.138 6.345 16.129 6.584 16.014 6.876 15.663 7.409 15.02 7.963 14.394 8.536 13.786 7.711 13.07 7.307 11.979 7.466 10.898 7.56 10.221 7.573 9.587 7.562 9.087 7.551 8.599 7.516 8.275 7.516 8.072 7.516 8.066 7.516 8.05 7.516 8.05L7.515 8.045V8.044C7.515 6.988 7.698 5.941 8.058 4.949 8.315 4.267 8.697 3.574 9.27 3.013 8.707 2.828 7.708 2.546 6.626 2.492 6.51 2.486 6.394 2.483 6.278 2.483H6.279ZM17.644 7.325C17.021 7.333 16.672 7.494 16.489 7.704 16.229 8.002 16.204 8.524 16.366 9.168 16.526 9.812 16.858 10.533 17.17 11.131 17.326 11.431 17.477 11.7 17.599 11.919 17.722 12.139 17.811 12.295 17.866 12.428 17.917 12.551 17.973 12.659 18.03 12.76 18.271 12.251 18.314 11.752 18.289 11.231 18.257 10.587 18.107 9.927 18.129 9.26 18.154 8.48 18.308 7.972 18.322 7.369 18.097 7.34 17.87 7.325 17.644 7.325ZM10.096 7.43C9.906 7.432 9.716 7.455 9.531 7.498 9.162 7.588 8.807 7.726 8.474 7.91 8.362 7.97 8.255 8.04 8.154 8.119L8.134 8.137C8.14 8.271 8.166 8.596 8.177 9.073 8.188 9.596 8.175 10.262 8.074 10.984 7.855 12.551 8.993 13.849 10.329 13.851 10.407 13.529 10.536 13.203 10.664 12.859 11.036 11.856 11.769 11.125 11.152 8.27 11.051 7.803 10.851 7.614 10.576 7.507 10.422 7.453 10.259 7.427 10.096 7.43ZM17.353 7.617H17.399C17.459 7.619 17.515 7.626 17.564 7.638 17.613 7.649 17.656 7.665 17.69 7.688 17.726 7.71 17.751 7.747 17.759 7.789L17.758 7.796H17.759 17.758C17.76 7.84 17.749 7.883 17.726 7.92 17.699 7.97 17.665 8.017 17.625 8.057 17.532 8.16 17.408 8.228 17.271 8.252 17.139 8.268 17.005 8.234 16.896 8.157 16.851 8.127 16.811 8.091 16.776 8.049 16.747 8.017 16.727 7.976 16.719 7.933 16.715 7.89 16.729 7.848 16.757 7.815 16.787 7.781 16.824 7.753 16.864 7.733 16.952 7.683 17.072 7.647 17.206 7.627 17.257 7.619 17.306 7.616 17.353 7.615V7.617ZM10.185 7.771C10.233 7.771 10.285 7.776 10.337 7.783 10.477 7.803 10.602 7.84 10.697 7.895 10.744 7.919 10.785 7.952 10.819 7.992 10.856 8.035 10.874 8.092 10.868 8.148 10.86 8.201 10.836 8.25 10.8 8.289 10.762 8.335 10.718 8.376 10.669 8.409 10.549 8.493 10.403 8.53 10.258 8.512 10.11 8.488 9.974 8.414 9.873 8.303 9.83 8.258 9.793 8.208 9.765 8.153 9.735 8.104 9.721 8.047 9.727 7.991 9.741 7.892 9.823 7.84 9.902 7.812 9.993 7.783 10.088 7.77 10.184 7.775L10.185 7.771ZM18.49 14.503L18.487 14.504C18.352 14.552 18.241 14.572 18.148 14.614 18.053 14.65 17.975 14.72 17.929 14.81 17.871 14.915 17.821 15.102 17.836 15.42 17.878 15.449 17.923 15.47 17.972 15.484 18.129 15.532 18.392 15.563 18.685 15.559 19.27 15.552 19.989 15.416 20.372 15.238 20.685 15.092 20.976 14.902 21.236 14.674H21.235C19.958 14.938 19.237 14.867 18.794 14.685 18.684 14.639 18.582 14.578 18.49 14.502V14.503ZM11.128 14.589H11.109C11.06 14.593 10.989 14.61 10.853 14.761 10.534 15.119 10.422 15.343 10.159 15.553 9.896 15.762 9.554 15.874 8.871 16.014 8.655 16.058 8.531 16.107 8.448 16.146 8.475 16.168 8.472 16.174 8.513 16.195 8.613 16.25 8.741 16.298 8.844 16.325 9.138 16.398 9.62 16.484 10.123 16.398 10.626 16.312 11.15 16.071 11.596 15.445 11.673 15.337 11.682 15.177 11.618 15.006 11.554 14.834 11.414 14.687 11.315 14.646 11.256 14.617 11.193 14.599 11.128 14.591V14.589Z"/>
</svg>
