
<svg viewBox="0 0 100 100" xmlns="http://www.w3.org/2000/svg">
    <rect width="100" height="100" fill="none" fill-rule="evenodd"/>
    <path fill-rule="evenodd" d="M29.596 5.575V5.554C35.202 5.554 42.54 9.509 49.959 16.398 57.379 9.468 64.717 5.473 70.322 5.473V5.493C72.006 5.496 73.548 5.863 74.868 6.635 80.616 9.937 81.92 20.251 78.985 33.214 91.704 37.108 100 43.386 100 50.01 100 56.614 91.745 62.892 79.107 66.786 82.063 79.709 80.779 90.002 75.051 93.304 73.706 94.079 72.157 94.446 70.444 94.446 64.839 94.446 57.501 90.491 50.082 83.602 42.662 90.532 35.324 94.527 29.719 94.527 28.007 94.527 26.457 94.16 25.132 93.386 19.384 90.084 18.08 79.77 21.015 66.806 8.296 62.913 0 56.635 0 50.01 0 43.406 8.255 37.148 20.934 33.235 17.978 20.312 19.262 10.018 24.99 6.716 26.335 5.942 27.884 5.575 29.596 5.575ZM27.375 89.452C27.986 89.798 28.761 89.982 29.678 90.002 33.918 90.002 40.155 86.618 46.8 80.442 43.926 77.446 41.072 74.022 38.32 70.251 33.734 69.762 29.372 69.007 25.377 68.029 24.929 70.088 24.562 72.106 24.338 74.022 23.4 81.808 24.603 87.862 27.375 89.452ZM75.724 73.92C75.499 72.024 75.132 70.047 74.664 67.988 70.669 68.987 66.307 69.741 61.7 70.23 58.989 74.001 56.135 77.405 53.282 80.402 59.927 86.537 66.184 89.9 70.404 89.9 71.341 89.9 72.136 89.737 72.748 89.37 75.499 87.76 76.682 81.706 75.724 73.92ZM34.855 34.804C31.94 35.232 29.128 35.783 26.457 36.415 27.232 39.064 28.17 41.796 29.27 44.527 30.106 42.896 30.982 41.266 31.92 39.635 32.858 37.984 33.857 36.374 34.855 34.804ZM83.571 60.324C90.787 57.267 95.455 53.21 95.475 50.01 95.475 46.81 90.807 42.774 83.592 39.696 81.798 38.942 79.882 38.249 77.864 37.617 76.722 41.592 75.214 45.73 73.339 49.969 75.234 54.23 76.763 58.388 77.925 62.383 79.902 61.751 81.818 61.078 83.571 60.324ZM64.126 58.123C65.654 55.453 67.061 52.721 68.345 49.99 67.061 47.258 65.654 44.547 64.105 41.877 62.515 39.146 60.864 36.557 59.172 34.132 56.156 33.887 53.078 33.744 50 33.744 46.902 33.744 43.824 33.887 40.787 34.152 39.095 36.578 37.464 39.187 35.874 41.938 34.346 44.609 32.919 47.34 31.655 50.071 32.939 52.803 34.346 55.514 35.895 58.184 37.485 60.915 39.136 63.504 40.828 65.929 43.844 66.174 46.922 66.317 50 66.317 53.098 66.317 56.176 66.174 59.213 65.909 60.905 63.483 62.536 60.874 64.126 58.123ZM49.98 40.695C55.121 40.695 59.295 44.869 59.295 50.01 59.295 55.151 55.121 59.325 49.98 59.325 44.838 59.325 40.664 55.151 40.664 50.01 40.664 44.869 44.838 40.695 49.98 40.695ZM49.939 22.799C48.064 24.755 46.168 26.936 44.333 29.321 46.188 29.219 48.084 29.179 50 29.179 51.896 29.179 53.771 29.24 55.605 29.321 53.73 26.936 51.834 24.755 49.939 22.799ZM70.302 10.018C66.062 10.029 59.834 13.412 53.2 19.578 56.074 22.574 58.928 25.999 61.68 29.77 66.266 30.259 70.628 31.013 74.623 31.991 75.071 29.933 75.438 27.915 75.662 25.999 76.6 18.212 75.397 12.159 72.625 10.569 71.993 10.222 71.239 10.039 70.302 10.039V10.018ZM73.461 36.415C70.791 35.762 67.998 35.232 65.104 34.804 66.103 36.353 67.102 37.943 68.039 39.574 68.997 41.205 69.874 42.835 70.709 44.466 71.769 41.755 72.707 39.044 73.461 36.415ZM29.596 10.1V10.12C28.659 10.12 27.864 10.283 27.252 10.65 24.501 12.26 23.318 18.314 24.276 26.101 24.521 27.996 24.868 29.974 25.336 32.012 29.331 31.013 33.693 30.259 38.3 29.77 41.011 25.999 43.865 22.595 46.718 19.598 40.073 13.463 33.816 10.1 29.596 10.1ZM16.408 60.324C18.182 61.078 20.098 61.771 22.116 62.403 23.257 58.428 24.766 54.291 26.641 50.051 24.745 45.791 23.216 41.633 22.055 37.638 20.077 38.269 18.161 38.942 16.408 39.696 9.193 42.754 4.525 46.81 4.525 50.01 4.525 53.21 9.193 57.246 16.408 60.324ZM34.876 65.216C33.877 63.667 32.898 62.077 31.94 60.446 30.982 58.816 30.106 57.185 29.27 55.554 28.21 58.265 27.273 60.976 26.519 63.606 29.189 64.258 31.981 64.788 34.876 65.216ZM50.041 77.222C51.916 75.265 53.812 73.084 55.646 70.699 53.791 70.801 51.896 70.842 49.98 70.842 48.084 70.842 46.209 70.781 44.374 70.699 46.249 73.084 48.145 75.265 50.041 77.222ZM70.709 55.473C69.874 57.104 68.997 58.755 68.06 60.385 67.122 62.036 66.123 63.647 65.124 65.216 68.039 64.788 70.852 64.238 73.522 63.585 72.748 60.936 71.81 58.204 70.709 55.473Z"/>
</svg>