<svg viewBox="0 0 24 24" xmlns="http://www.w3.org/2000/svg">
    <path d="M16.277 17.125L20.529 20.898 12.163 20.241C13.802 19.251 15.154 18.068 16.167 17.127 16.183 17.13 16.201 17.132 16.219 17.132 16.238 17.132 16.258 17.13 16.277 17.125ZM20.983 19.38L21.766 9.123C21.379 10.113 20.766 11.266 19.971 12.496L20.983 19.38ZM16.562 16.892L20.804 20.657 19.671 12.952C18.737 14.341 17.616 15.762 16.562 16.892ZM11.607 20.563C10.693 21.069 9.753 21.472 8.8 21.766L18.577 21.109 11.61 20.562 11.607 20.563ZM3.442 15.622L6.003 21.606 8.111 14.624 3.442 15.622ZM8.732 14.27L15.863 16.56 14.043 9.35 8.732 14.27ZM14.442 8.634L21.089 8.189 15.892 3.945 14.442 8.634ZM18.223 2.095L13.861 2.075 15.801 3.433 18.223 2.095ZM2.168 13.086L2.024 17.339 3.07 15.431 2.168 13.086ZM4.551 14.795C5.38 14.848 6.217 14.664 7.062 14.294 7.631 14.024 8.222 13.683 8.814 13.282 9.664 12.681 10.521 11.93 11.384 11.075 14.487 8 15.763 4.56 14.407 3.19 14.083 2.864 13.62 2.697 13.03 2.694 11.243 2.687 8.572 4.032 6.295 6.289 4.119 8.445 2.709 11.005 2.701 12.81 2.699 13.452 2.876 13.958 3.229 14.313 3.543 14.63 3.988 14.759 4.551 14.795ZM11.026 20.461C11.123 20.411 11.22 20.36 11.315 20.308L8.446 14.771 6.286 21.925C6.304 21.923 6.45 21.905 6.45 21.905 6.638 21.881 6.825 21.854 7.008 21.822 8.195 21.62 9.369 21.25 10.498 20.721 10.676 20.638 10.852 20.551 11.026 20.461ZM16.886 15.894L16.954 15.816C17.002 15.76 17.05 15.703 17.097 15.646 17.097 15.646 17.245 15.471 17.302 15.401 17.399 15.284 17.494 15.165 17.591 15.046 17.679 14.935 17.767 14.825 17.855 14.712 17.947 14.594 18.04 14.475 18.131 14.354 18.339 14.081 18.548 13.795 18.772 13.479 19.009 13.145 19.238 12.808 19.454 12.478L19.065 12.24C18.033 11.609 15.959 10.338 14.595 9.5L16.36 16.49C16.524 16.31 16.697 16.114 16.886 15.894ZM21.872 4.64L16.384 3.869 21.616 8.148C21.8 7.542 21.92 6.954 21.972 6.399 21.979 6.321 21.984 6.243 21.989 6.164 21.993 6.092 21.996 6.019 21.998 5.946 22.01 5.473 21.968 5.034 21.872 4.64ZM19.762 12.146C19.776 12.129 19.791 12.109 19.807 12.085 19.912 11.937 20.06 11.695 20.225 11.404 20.685 10.593 21.252 9.437 21.489 8.586L14.663 9.041C16.086 9.916 18.166 11.191 19.2 11.823L19.752 12.16C19.755 12.156 19.758 12.151 19.762 12.146ZM11.58 20.224L11.601 20.212C13.09 19.387 14.421 18.372 15.912 16.921L8.655 14.58 11.58 20.224ZM2 18.103C2.032 19.048 2.233 19.829 2.597 20.428L2.935 16.392 2 18.103ZM3.322 16.126L2.931 20.783C3.488 21.512 4.233 21.837 5.339 21.837 5.451 21.837 5.567 21.834 5.691 21.828L5.495 21.342C5.072 20.291 3.865 17.293 3.322 16.126ZM21.79 4.352C21.71 4.106 21.607 3.879 21.485 3.675 20.99 2.853 20.136 2.326 18.946 2.11L16.286 3.579 21.79 4.352Z"/>
</svg>
