
<svg viewBox="0 0 100 100" xmlns="http://www.w3.org/2000/svg">
    <defs>
        <clipPath id="a">
            <path d="M0 0H100V100H0Z"/>
        </clipPath>
    </defs>
    <rect width="100" height="100" fill="none" fill-rule="evenodd"/>
    <path clip-path="url(#a)" d="M86.085 55.564C82.588 55.584 79.561 56.423 77.022 57.674 76.084 55.818 75.146 54.197 74.99 52.986 74.814 51.579 74.6 50.72 74.814 49.04 75.029 47.36 76.006 44.977 76.006 44.782 75.986 44.606 75.791 43.747 73.779 43.727 71.767 43.707 70.029 44.118 69.833 44.645 69.638 45.172 69.247 46.383 68.993 47.634 68.642 49.47 64.97 55.974 62.88 59.392 62.196 58.064 61.61 56.892 61.493 55.954 61.317 54.548 61.102 53.689 61.317 52.009 61.532 50.329 62.509 47.946 62.509 47.751 62.489 47.575 62.294 46.716 60.282 46.696 58.27 46.676 56.532 47.087 56.336 47.614 56.141 48.141 55.926 49.392 55.496 50.603 55.086 51.814 50.203 62.674 48.933 65.506 48.289 66.952 47.722 68.104 47.312 68.885 46.902 69.667 47.292 68.944 47.253 69.022 46.902 69.686 46.706 70.057 46.706 70.057V70.077C46.433 70.565 46.14 71.034 46.003 71.034 45.905 71.034 45.71 69.725 46.042 67.929 46.765 64.158 48.523 58.279 48.503 58.064 48.503 57.967 48.835 56.931 47.37 56.404 45.944 55.877 45.437 56.756 45.319 56.756 45.202 56.756 45.104 57.068 45.104 57.068 45.104 57.068 46.687 50.447 42.077 50.447 39.186 50.447 35.201 53.592 33.228 56.463 31.978 57.147 29.322 58.592 26.509 60.135 25.435 60.721 24.321 61.346 23.267 61.913L23.052 61.678C17.466 55.72 7.133 51.501 7.562 43.493 7.719 40.582 8.734 32.906 27.408 23.608 42.702 15.99 54.949 18.08 57.078 22.729 60.106 29.37 50.535 41.715 34.635 43.493 28.58 44.176 25.396 41.832 24.595 40.953 23.755 40.035 23.638 39.996 23.326 40.172 22.818 40.445 23.13 41.266 23.326 41.754 23.794 42.985 25.748 45.172 29.068 46.266 31.979 47.223 39.089 47.751 47.683 44.43 57.313 40.699 64.833 30.347 62.626 21.694 60.38 12.884 45.769 9.994 31.959 14.896 23.736 17.826 14.829 22.397 8.422 28.394 .804 35.504-.407 41.715.101 44.293 1.878 53.493 14.555 59.49 19.634 63.924 19.38 64.061 19.145 64.197 18.93 64.315 16.391 65.565 6.722 70.624 4.3 75.976 1.566 82.031 4.73 86.387 6.84 86.973 13.364 88.79 20.044 85.528 23.657 80.156 27.251 74.784 26.822 67.811 25.162 64.627L25.103 64.51 27.095 63.338C28.384 62.576 29.654 61.873 30.767 61.267 30.142 62.967 29.693 64.979 29.459 67.909 29.185 71.347 30.592 75.8 32.447 77.558 33.268 78.319 34.244 78.339 34.85 78.339 36.998 78.339 37.975 76.561 39.049 74.433 40.378 71.835 41.55 68.827 41.55 68.827 41.55 68.827 40.085 76.972 44.089 76.972 45.554 76.972 47.019 75.077 47.683 74.101V74.12C47.683 74.12 47.722 74.061 47.8 73.925 47.882 73.804 47.96 73.68 48.035 73.554V73.515C48.621 72.499 49.929 70.175 51.883 66.327 54.402 61.365 56.824 55.154 56.824 55.154 56.824 55.154 57.059 56.677 57.782 59.178 58.211 60.662 59.149 62.283 59.871 63.865 59.285 64.686 58.934 65.155 58.934 65.155L58.953 65.174C58.485 65.799 57.957 66.464 57.41 67.128 55.418 69.511 53.035 72.226 52.723 73.007 52.351 73.925 52.43 74.609 53.152 75.156 53.68 75.547 54.617 75.624 55.613 75.547 57.41 75.429 58.661 74.98 59.286 74.706 60.262 74.355 61.376 73.827 62.45 73.046 64.403 71.601 65.595 69.55 65.478 66.815 65.419 65.311 64.931 63.827 64.325 62.42 64.501 62.166 64.677 61.912 64.852 61.639 67.939 57.127 70.322 52.166 70.322 52.166 70.322 52.166 70.556 53.689 71.279 56.189 71.65 57.459 72.392 58.846 73.056 60.213 70.165 62.577 68.349 65.311 67.724 67.109 66.571 70.429 67.47 71.933 69.169 72.285 69.931 72.441 71.025 72.089 71.845 71.738 72.861 71.406 74.091 70.839 75.224 69.999 77.178 68.554 79.053 66.542 78.955 63.827 78.897 62.577 78.565 61.346 78.115 60.174 80.577 59.159 83.76 58.573 87.804 59.061 96.496 60.077 98.215 65.507 97.883 67.773 97.551 70.039 95.734 71.289 95.129 71.679 94.523 72.05 94.328 72.187 94.386 72.461 94.464 72.871 94.738 72.851 95.265 72.773 95.988 72.656 99.836 70.918 99.992 66.738 100.227 61.365 95.129 55.506 86.085 55.564ZM19.048 78.164C16.176 81.308 12.133 82.5 10.414 81.484 8.558 80.41 9.281 75.781 12.817 72.44 14.965 70.409 17.759 68.534 19.595 67.381 20.005 67.127 20.63 66.757 21.372 66.307 21.489 66.229 21.567 66.19 21.567 66.19 21.704 66.112 21.86 66.014 22.017 65.916 23.325 70.682 22.075 74.863 19.048 78.164ZM40.046 63.885C39.049 66.327 36.94 72.597 35.67 72.245 34.576 71.952 33.912 67.206 35.455 62.518 36.236 60.154 37.897 57.341 38.873 56.247 40.456 54.489 42.175 53.903 42.604 54.626 43.112 55.564 40.671 62.361 40.046 63.885ZM57.371 72.167C56.942 72.382 56.551 72.538 56.375 72.421 56.238 72.343 56.551 72.05 56.551 72.05 56.551 72.05 58.719 69.726 59.578 68.651 60.067 68.026 60.653 67.304 61.278 66.483V66.717C61.278 69.53 58.582 71.405 57.371 72.167ZM70.732 69.12C70.419 68.885 70.458 68.163 71.513 65.897 71.923 64.998 72.861 63.494 74.482 62.068 74.677 62.654 74.795 63.221 74.775 63.748 74.756 67.264 72.255 68.573 70.732 69.12Z"/>
</svg>