
<svg viewBox="0 0 100 100" xmlns="http://www.w3.org/2000/svg">
    <rect width="100" height="100" fill="none" fill-rule="evenodd"/>
    <path fill-rule="evenodd" d="M4.167 95.833V4.167H95.833V95.833H4.167ZM24.265 50.16V53.896H36.181V87.813H44.638V53.896H56.554V50.229C56.554 48.167 56.554 46.494 56.463 46.448 56.463 46.379 49.198 46.356 40.375 46.356L24.333 46.425V50.183L24.265 50.16ZM77.821 46.333L77.867 46.288C76.285 45.875 72.504 45.738 70.9 46.058 65.95 46.975 62.49 50.183 61.504 54.767 61.183 56.073 61.298 59.327 61.642 60.656 62.1 62.192 63.085 64.048 64.163 65.24 66.042 67.21 68.058 68.494 72.802 70.51 76.927 72.344 78.394 73.169 79.127 74.177 79.654 74.979 79.815 75.46 79.815 76.515 79.815 77.66 79.448 78.485 78.6 79.265 76.629 81.052 72.642 81.258 69.663 79.723 68.677 79.173 66.981 77.569 66.225 76.377L65.629 75.575 63.04 77.088 59.602 79.081 58.731 79.631C58.64 79.792 60.267 82.244 61.115 83.16 63.269 85.521 66.775 87.354 70.442 88.042 72.16 88.34 75.827 88.385 77.431 88.11 82.542 87.263 86.117 84.673 87.583 80.846 88.89 77.34 88.454 72.665 86.506 69.685 84.788 67.027 81.946 65.171 75.392 62.352 71.84 60.794 70.694 60.038 70.075 58.777 69.8 58.181 69.663 57.769 69.663 57.035 69.663 54.629 71.496 53.185 74.246 53.369 76.148 53.506 77.363 54.24 78.554 55.935 78.921 56.531 79.288 56.921 79.379 56.852 81.785 55.363 85.75 52.681 85.75 52.544 85.658 52.131 84.398 50.527 83.55 49.61 81.946 47.938 80.158 46.883 77.821 46.333Z"/>
</svg>