
<svg viewBox="0 0 100 100" xmlns="http://www.w3.org/2000/svg">
    <rect width="100" height="100" fill="none" fill-rule="evenodd"/>
    <path d="M50.001 99.999C22.292 99.999-.208 77.916.001 50 .21 22.084 21.251.001 50.001.001 78.752.001 100 22.5 100 50 100 77.5 77.709 99.999 50.001 99.999ZM64.792 92.29L50.626 54.166 37.292 93.124C47.085 95.417 53.751 96.04 64.792 92.29ZM30.21 90.208L8.96 32.084C6.042 38.334 5.419 43.543 5.001 50 5.21 67.082 14.792 82.707 30.21 90.208ZM94.793 50C95 38.959 90.002 30.209 89.584 28.959 90.002 37.502 88.75 41.875 87.293 46.668L72.709 88.542C91.043 77.5 94.582 61.041 95 50H94.793ZM48.544 48.125L41.46 28.75 36.251 28.334C34.169 26.875 35.417 24.584 36.876 24.584 46.251 25.209 51.458 25.209 60.835 24.584 63.127 24.584 63.751 27.918 61.042 28.334L56.042 28.75 72.289 76.666 79.996 50.416C80.414 38.959 77.287 37.709 73.121 29.375 69.788 22.916 73.33 16.666 79.789 16.459 74.578 11.46 63.956 5.21 49.997 5.001 36.038 4.792 21.247 11.876 12.497 25.209L27.915 24.793C29.79 25.627 28.956 28.334 27.915 28.543L22.499 28.959 38.749 77.709 48.544 48.125Z"/>
</svg>